Patient4_TMGait_0pt2_03_right_08_GRF.mot
version=1
nRows=65
nColumns=19
inDegrees=no
endheader
time	F1x	F1y	F1z	M1x	M1y	M1z	F2x	F2y	F2z	M2x	M2y	M2z	EC1x	EC1y	EC1z	EC2x	EC2y	EC2z
17.05	-14.0009	782.7935	61.7689	-276.4099	-62.9013	789.4473	8.4073	37.3898	-3.5449	12.2374	1.069	36.1696	-0.0592	0.0182	-0.0073	-0.0462	0.0165	0.9585
17.0713	-13.4438	809.3214	63.0301	-285.8002	-63.4952	812.588	4.8001	29.306	-2.714	9.6568	1.327	28.2565	-0.0592	0.0182	-0.0073	-0.0462	0.0165	0.9585
17.0926	-12.485	837.1405	64.4458	-295.6704	-64.0145	836.4008	2.0133	21.4844	-1.9538	7.1379	1.4032	20.6645	-0.0592	0.0182	-0.0073	-0.0462	0.0165	0.9585
17.1139	-11.0098	862.2084	65.9069	-304.559	-64.352	857.0386	0.21164	14.694	-1.3392	4.9348	1.3226	14.1188	-0.0592	0.0182	-0.0073	-0.0462	0.0165	0.9585
17.1351	-8.9712	879.9598	67.2732	-310.8097	-64.3994	870.2015	-0.78216	9.3829	-0.89494	3.201	1.1674	9.0265	-0.0592	0.0182	-0.0073	-0.0462	0.0165	0.9585
17.1564	-6.4042	886.4302	68.3534	-312.9873	-64.0202	872.2166	-1.2052	5.5861	-0.60979	1.9537	1.0019	5.4041	-0.0592	0.0182	-0.0073	-0.0462	0.0165	0.9585
17.1777	-3.4124	879.4595	68.9115	-310.3184	-63.0462	861.1706	-1.2632	3.0658	-0.45389	1.1183	0.85896	3.0096	-0.0592	0.0182	-0.0073	-0.0462	0.0165	0.9585
17.199	-0.12721	859.4756	68.7181	-302.9727	-61.3114	837.621	-1.1149	1.4554	-0.39267	0.57675	0.74954	1.4818	-0.0592	0.0182	-0.0073	-0.0462	0.0165	0.9585
17.2203	3.3439	829.5228	67.6255	-292.0686	-58.7088	804.5957	-0.87201	0.35829	-0.39151	0.20017	0.66837	0.43619	-0.0592	0.0182	-0.0073	-0.0462	0.0165	0.9585
17.2416	6.9263	794.5355	65.6372	-279.4026	-55.2533	766.8597	-0.60379	-0.59416	-0.41767	-0.13235	0.60072	-0.48658	-0.0592	0.0182	-0.0073	-0.0462	0.0165	0.9585
17.2629	10.558	760.2124	62.9292	-267.0352	-51.111	729.8329	-0.34548	-1.7003	-0.44032	-0.51974	0.52815	-1.5798	-0.0592	0.0182	-0.0073	-0.0462	0.0165	0.9585
17.2841	14.1598	731.7699	59.8081	-256.8393	-46.5786	698.4276	-0.10729	-3.1519	-0.43121	-1.0252	0.42809	-3.0351	-0.0592	0.0182	-0.0073	-0.0462	0.0165	0.9585
17.3054	17.6295	712.8172	56.6431	-250.0957	-42.025	676.026	0.11733	-4.9947	-0.36327	-1.6626	0.27396	-4.8953	-0.0592	0.0182	-0.0073	-0.0462	0.0165	0.9585
17.3267	20.8599	704.64	53.7977	-247.2405	-37.8252	663.8447	0.34374	-7.072	-0.20957	-2.3775	0.036343	-6.9953	-0.0592	0.0182	-0.0073	-0.0462	0.0165	0.9585
17.348	23.7623	706.0908	51.5527	-247.8336	-34.2816	660.8527	0.58316	-8.9599	0.052623	-3.0241	-0.30898	-8.9045	-0.0592	0.0182	-0.0073	-0.0462	0.0165	0.9585
17.3693	26.2968	714.1058	50.0482	-250.7503	-31.5609	664.2438	0.83339	-9.8909	0.43483	-3.3384	-0.77051	-9.8444	-0.0592	0.0182	-0.0073	-0.0462	0.0165	0.9585
17.3906	28.4912	724.5752	49.2799	-254.4977	-29.6813	670.2461	1.0757	-8.6881	0.92978	-2.9159	-1.3319	-8.6229	-0.0592	0.0182	-0.0073	-0.0462	0.0165	0.9585
17.4119	30.4379	733.2678	49.1378	-257.5442	-28.5422	674.9839	1.2657	-3.7354	1.5007	-1.2031	-1.9352	-3.5992	-0.0592	0.0182	-0.0073	-0.0462	0.0165	0.9585
17.4331	32.2369	736.545	49.4487	-258.5745	-27.9766	675.1462	1.3228	6.9679	2.0627	2.4824	-2.4587	7.2475	-0.0592	0.0182	-0.0073	-0.0462	0.0165	0.9585
17.4544	33.9154	731.7555	49.9976	-256.6354	-27.7929	668.3533	1.1265	25.6108	2.4636	8.8846	-2.6943	26.1187	-0.0592	0.0182	-0.0073	-0.0462	0.0165	0.9585
17.4757	35.3592	717.3066	50.5301	-251.167	-27.8027	653.2368	0.51506	54.1611	2.4641	18.6685	-2.3284	54.987	-0.0592	0.0182	-0.0073	-0.0462	0.0165	0.9585
17.497	36.2992	692.5245	50.7584	-241.9517	-27.8345	629.3023	-0.70997	93.6625	1.7253	32.1782	-0.9372	94.8942	-0.0592	0.0182	-0.0073	-0.0462	0.0165	0.9585
17.5183	36.3713	657.5095	50.3748	-229.0623	-27.7277	596.7676	-2.7428	143.206	-0.18635	49.0843	1.9859	144.9119	-0.0592	0.0182	-0.0073	-0.0462	0.0165	0.9585
17.5396	35.2444	613.3136	49.101	-212.9221	-27.336	556.6649	-5.5134	198.9981	-3.6439	68.0575	6.7705	201.2075	-0.0592	0.0182	-0.0073	-0.0462	0.0165	0.9585
17.5609	32.7562	562.4123	46.7948	-194.4594	-26.5774	511.2141	-8.6037	254.842	-8.5223	86.9639	13.0951	257.5329	-0.0592	0.0182	-0.0073	-0.0462	0.0165	0.9585
17.5821	29.0143	508.8396	43.5387	-175.1375	-25.4731	463.9168	-11.575	305.5845	-14.0548	104.0744	20.0042	308.7193	-0.0592	0.0182	-0.0073	-0.0462	0.0165	0.9585
17.6034	24.4391	457.2314	39.6265	-156.6089	-24.1145	418.7156	-14.1741	349.3958	-19.329	118.8201	26.4918	352.9931	-0.0592	0.0182	-0.0073	-0.0462	0.0165	0.9585
17.6247	19.6874	411.3263	35.4662	-140.1883	-22.6063	378.7032	-16.3236	386.5617	-23.7533	131.3396	31.9487	390.7366	-0.0592	0.0182	-0.0073	-0.0462	0.0165	0.9585
17.646	15.437	373.1185	31.4846	-126.5601	-21.0611	345.4313	-18.0193	418.0683	-27.1939	141.9733	36.2443	423.0328	-0.0592	0.0182	-0.0073	-0.0462	0.0165	0.9585
17.6673	12.1566	342.7959	28.0187	-115.7693	-19.5901	318.9168	-19.315	444.7532	-29.7847	150.9828	39.5238	450.7952	-0.0592	0.0182	-0.0073	-0.0462	0.0165	0.9585
17.6886	9.9967	319.2851	25.2468	-107.4246	-18.2824	298.1521	-20.3266	466.9612	-31.6861	158.4545	41.9761	474.404	-0.0592	0.0182	-0.0073	-0.0462	0.0165	0.9585
17.7099	8.8231	300.9666	23.1838	-100.9539	-17.1899	281.7203	-21.1626	484.6908	-33.0134	164.366	43.7444	493.8266	-0.0592	0.0182	-0.0073	-0.0462	0.0165	0.9585
17.7311	8.3463	286.1902	21.7327	-95.7816	-16.3303	268.2168	-21.8719	498.0198	-33.8596	168.7381	44.9334	509.0297	-0.0592	0.0182	-0.0073	-0.0462	0.0165	0.9585
17.7524	8.2611	273.4715	20.7426	-91.3908	-15.683	256.3961	-22.4495	507.5518	-34.3075	171.7867	45.6304	520.4386	-0.0592	0.0182	-0.0073	-0.0462	0.0165	0.9585
17.7737	8.3349	261.5147	20.0432	-87.3269	-15.1828	245.1701	-22.8536	514.5283	-34.4578	173.9554	45.9364	529.081	-0.0592	0.0182	-0.0073	-0.0462	0.0165	0.9585
17.795	8.4207	249.2573	19.4742	-83.2096	-14.7426	233.6282	-23.0022	520.5937	-34.4536	175.8274	45.9807	536.3856	-0.0592	0.0182	-0.0073	-0.0462	0.0165	0.9585
17.8163	8.4295	235.9044	18.9036	-78.75	-14.2828	221.0735	-22.7654	527.4329	-34.4493	177.9982	45.8844	543.8433	-0.0592	0.0182	-0.0073	-0.0462	0.0165	0.9585
17.8376	8.3019	220.9368	18.2312	-73.7568	-13.7457	207.0425	-21.982	536.4207	-34.5527	180.9525	45.7054	552.6762	-0.0592	0.0182	-0.0073	-0.0462	0.0165	0.9585
17.8589	7.9855	204.1154	17.3913	-68.1366	-13.105	191.3218	-20.5134	548.3943	-34.8088	184.9874	45.4376	563.6329	-0.0592	0.0182	-0.0073	-0.0462	0.0165	0.9585
17.8801	7.4336	185.4771	16.3532	-61.8955	-12.361	173.947	-18.3148	563.6089	-35.2268	190.1919	45.0649	576.9649	-0.0592	0.0182	-0.0073	-0.0462	0.0165	0.9585
17.9014	6.618	165.318	15.1183	-55.1335	-11.531	155.1859	-15.48	581.8415	-35.8371	196.4769	44.6358	592.538	-0.0592	0.0182	-0.0073	-0.0462	0.0165	0.9585
17.9227	5.5445	144.1759	13.7191	-48.0349	-10.6453	135.5238	-12.2647	602.5988	-36.7023	203.6439	44.2813	610.048	-0.0592	0.0182	-0.0073	-0.0462	0.0165	0.9585
17.944	4.264	122.7585	12.2162	-40.843	-9.7434	115.5996	-9.0961	625.2943	-37.8813	211.4488	44.1865	629.1942	-0.0592	0.0182	-0.0073	-0.0462	0.0165	0.9585
17.9653	2.8641	101.8014	10.6846	-33.8101	-8.8609	96.0765	-6.5253	649.3237	-39.3985	219.6384	44.5453	649.7097	-0.0592	0.0182	-0.0073	-0.0462	0.0165	0.9585
17.9866	1.4457	81.9099	9.1863	-27.1447	-8.0117	77.4966	-5.0907	674.2365	-41.2255	228.0221	45.4994	671.4423	-0.0592	0.0182	-0.0073	-0.0462	0.0165	0.9585
18.0079	0.11656	63.5282	7.7535	-21.0003	-7.1789	60.2646	-5.1271	700.0256	-43.2601	236.5869	47.056	694.5467	-0.0592	0.0182	-0.0073	-0.0462	0.0165	0.9585
18.0291	-1.0137	47.0145	6.3872	-15.4974	-6.3216	44.7259	-6.5879	727.2549	-45.3239	245.5492	49.0292	719.5429	-0.0592	0.0182	-0.0073	-0.0462	0.0165	0.9585
18.0504	-1.826	32.6873	5.0732	-10.7397	-5.3886	31.2021	-9.0738	756.6476	-47.2268	255.2082	51.1107	746.9399	-0.0592	0.0182	-0.0073	-0.0462	0.0165	0.9585
18.0717	-2.2185	20.8195	3.8098	-6.8117	-4.3492	19.9704	-12.0275	788.2491	-48.8062	265.6422	52.9697	776.5259	-0.0592	0.0182	-0.0073	-0.0462	0.0165	0.9585
18.093	-2.1758	11.5719	2.6352	-3.7605	-3.2374	11.1936	-14.9167	820.7203	-49.9352	276.4462	54.3166	806.7779	-0.0592	0.0182	-0.0073	-0.0462	0.0165	0.9585
18.1143	-1.8281	4.9309	1.6303	-1.5759	-2.1769	4.869	-17.3598	851.2126	-50.5459	286.6725	54.9673	834.8043	-0.0592	0.0182	-0.0073	-0.0462	0.0165	0.9585
18.1356	-1.362	0.62695	0.8591	-0.16619	-1.2936	0.75748	-19.1602	876.0695	-50.6173	295.0716	54.8464	857.0356	-0.0592	0.0182	-0.0073	-0.0462	0.0165	0.9585
18.1569	-0.90025	-1.8101	0.32485	0.62574	-0.63515	-1.5812	-20.2212	892.0335	-50.1235	300.5172	53.912	870.3604	-0.0592	0.0182	-0.0073	-0.0462	0.0165	0.9585
18.1781	-0.50721	-2.904	-0.0038754	0.9747	-0.196	-2.6445	-20.4716	897.1739	-49.0374	302.3326	52.1371	872.9801	-0.0592	0.0182	-0.0073	-0.0462	0.0165	0.9585
18.1994	-0.21065	-3.1378	-0.17111	1.0422	0.056849	-2.8878	-19.8821	891.2195	-47.374	300.4048	49.5523	864.7051	-0.0592	0.0182	-0.0073	-0.0462	0.0165	0.9585
18.2207	-0.015985	-2.9121	-0.22246	0.96198	0.1657	-2.6898	-18.483	875.4476	-45.2472	295.1453	46.303	846.832	-0.0592	0.0182	-0.0073	-0.0462	0.0165	0.9585
18.242	0.085583	-2.538	-0.19705	0.83643	0.17114	-2.3477	-16.3623	852.3033	-42.8739	287.3611	42.6497	821.7659	-0.0592	0.0182	-0.0073	-0.0462	0.0165	0.9585
18.2633	0.1094	-2.239	-0.12893	0.73989	0.11145	-2.0758	-13.654	824.8989	-40.527	278.0867	38.9132	792.5259	-0.0592	0.0182	-0.0073	-0.0462	0.0165	0.9585
18.2846	0.074323	-2.1639	-0.047333	0.72362	0.021864	-2.0233	-10.521	796.4712	-38.4659	268.4063	35.4014	762.2271	-0.0592	0.0182	-0.0073	-0.0462	0.0165	0.9585
18.3059	0.0086586	-2.4018	0.024361	0.81643	-0.065356	-2.284	-7.1371	769.8953	-36.8827	259.2933	32.3529	733.6238	-0.0592	0.0182	-0.0073	-0.0462	0.0165	0.9585
18.3271	-0.052343	-2.9813	0.064141	1.0253	-0.11884	-2.8921	-3.671	747.3565	-35.8807	251.498	29.914	708.7939	-0.0592	0.0182	-0.0073	-0.0462	0.0165	0.9585
18.3484	-0.075317	-3.8593	0.049687	1.333	-0.10794	-3.8088	-0.27453	730.2345	-35.4682	245.5061	28.1376	689.0313	-0.0592	0.0182	-0.0073	-0.0462	0.0165	0.9585
18.3697	-0.025466	-4.9032	-0.04395	1.6919	0.0028925	-4.9003	2.939	719.1221	-35.5719	241.5416	26.9901	674.8689	-0.0592	0.0182	-0.0073	-0.0462	0.0165	0.9585
18.391	0.13461	-5.8577	-0.24329	2.0125	0.25431	-5.9052	5.8984	713.9032	-36.075	239.5901	26.3871	666.1641	-0.0592	0.0182	-0.0073	-0.0462	0.0165	0.9585
18.4123	0.44375	-6.3038	-0.57092	2.1493	0.68631	-6.3992	8.5781	713.8576	-36.8588	239.4289	26.229	662.2101	-0.0592	0.0182	-0.0073	-0.0462	0.0165	0.9585
